        Perfume.The.Story.Of.A.Murderer.2006.720p.BRRip.x264.AAC.mp4-Zen_Bud


Format                           : MPEG-4
File size                        : 1.26 GiB
Duration                         : 2h 27mn
Overall bit rate                 : 1 226 Kbps



Video

Format                           : AVC
Format profile                   : Main@L3.1
Format settings, CABAC           : Yes
Format settings, ReFrames        : 4 frames
Duration                         : 2h 27mn
Bit rate                         : 940 Kbps
Width                            : 1 280 pixels
Height                           : 544 pixels
Display aspect ratio             : 2.35:1
Stream size                      : 953 MiB (74%)
Writing library                  : x264 core 115
Encoding settings                : cabac=1 / ref=3 / deblock=1:0:0 / analyse=0x1:0x111 

Audio

Format                           : AAC
Duration                         : 2h 27mn
Bit rate                         : 319 Kbp
Channel(s)                       : 2 channels
Channel positions                : Front: L R
Sampling rate                    : 48.0 KHz
Stream size                      : 337 MiB (26%)
Language                         : English


Subtitel                         : Svenska (.srt)


=============================================================================

Jean-Baptiste Grenouille, born with a superior olfactory sense, creates the 
world's finest perfume. His work, however, takes a dark turn as he searches 
for the ultimate scent. 

=============================================================================
 
http://img200.imageshack.us/i/vlcsnap2011061320h14m29.png/
 
http://img52.imageshack.us/i/vlcsnap2011061320h14m51.png/
 
http://img27.imageshack.us/i/vlcsnap2011061320h15m02.png/
 
http://img225.imageshack.us/i/vlcsnap2011061320h16m20.png/
 
http://img232.imageshack.us/i/vlcsnap2011061320h16m36.png/
